<svg width="16" height="16" viewBox="0 0 16 16" fill="none" xmlns="http://www.w3.org/2000/svg">
<path d="M4.66667 4.66667C4.66667 4.29848 4.96514 4 5.33333 4H13.3333C13.7015 4 14 4.29848 14 4.66667C14 5.03486 13.7015 5.33333 13.3333 5.33333H5.33333C4.96514 5.33333 4.66667 5.03486 4.66667 4.66667Z" fill="#CAC4D0"/>
<path d="M4.66667 8C4.66667 7.63181 4.96514 7.33333 5.33333 7.33333H13.3333C13.7015 7.33333 14 7.63181 14 8C14 8.36819 13.7015 8.66667 13.3333 8.66667H5.33333C4.96514 8.66667 4.66667 8.36819 4.66667 8Z" fill="#CAC4D0"/>
<path d="M4.66667 11.3333C4.66667 10.9651 4.96514 10.6667 5.33333 10.6667H13.3333C13.7015 10.6667 14 10.9651 14 11.3333C14 11.7015 13.7015 12 13.3333 12H5.33333C4.96514 12 4.66667 11.7015 4.66667 11.3333Z" fill="#CAC4D0"/>
<path d="M3.33333 4.66667C3.33333 5.03486 3.03486 5.33333 2.66667 5.33333C2.29848 5.33333 2 5.03486 2 4.66667C2 4.29848 2.29848 4 2.66667 4C3.03486 4 3.33333 4.29848 3.33333 4.66667Z" fill="#CAC4D0"/>
<path d="M3.33333 8C3.33333 8.36819 3.03486 8.66667 2.66667 8.66667C2.29848 8.66667 2 8.36819 2 8C2 7.63181 2.29848 7.33333 2.66667 7.33333C3.03486 7.33333 3.33333 7.63181 3.33333 8Z" fill="#CAC4D0"/>
<path d="M3.33333 11.3333C3.33333 11.7015 3.03486 12 2.66667 12C2.29848 12 2 11.7015 2 11.3333C2 10.9651 2.29848 10.6667 2.66667 10.6667C3.03486 10.6667 3.33333 10.9651 3.33333 11.3333Z" fill="#CAC4D0"/>
</svg>
