<svg width="16" height="16" viewBox="0 0 16 16" fill="none" xmlns="http://www.w3.org/2000/svg">
<path d="M2.66671 4.66663C2.66671 3.56206 3.56214 2.66663 4.66671 2.66663H11.3334C12.4379 2.66663 13.3334 3.56206 13.3334 4.66663H2.66671Z" fill="#CAC4D0"/>
<path fill-rule="evenodd" clip-rule="evenodd" d="M2.00004 5.99996C1.63185 5.99996 1.33337 6.29844 1.33337 6.66663V11.3333C1.33337 12.4379 2.2288 13.3333 3.33337 13.3333H12.6667C13.7713 13.3333 14.6667 12.4379 14.6667 11.3333V6.66663C14.6667 6.29844 14.3682 5.99996 14 5.99996H2.00004ZM11.3334 7.99996C10.9652 7.99996 10.6667 8.29844 10.6667 8.66663C10.6667 9.03482 10.9652 9.33329 11.3334 9.33329C11.7016 9.33329 12 9.03482 12 8.66663C12 8.29844 11.7016 7.99996 11.3334 7.99996Z" fill="#CAC4D0"/>
</svg>
